<svg xmlns="http://www.w3.org/2000/svg" width="24" height="38"  viewBox="0 0 512.007 512.007" style="enable-background:new 0 0 512.007 512.007" xml:space="preserve"><path d="M314.788 114.106a8.485 8.485 0 0 0 3.26.657 8.546 8.546 0 0 0 7.893-5.274l13.056-31.548a8.53 8.53 0 0 0-4.625-11.145 8.529 8.529 0 0 0-11.145 4.625l-13.056 31.539c-1.801 4.353.265 9.345 4.617 11.146zM256.001 119.473c-75.281 0-136.533 61.252-136.533 136.533 0 75.281 61.252 136.533 136.533 136.533 75.29 0 136.533-61.252 136.533-136.533.001-75.281-61.243-136.533-136.533-136.533zm0 256c-65.869 0-119.467-53.589-119.467-119.467 0-65.877 53.598-119.467 119.467-119.467 65.877 0 119.467 53.589 119.467 119.467s-53.589 119.467-119.467 119.467zM340.934 51.044a8.525 8.525 0 0 0 3.243.648 8.536 8.536 0 0 0 7.893-5.299l14.225-34.611A8.531 8.531 0 0 0 361.644.646c-4.352-1.801-9.344.29-11.136 4.651l-14.225 34.611c-1.783 4.361.29 9.344 4.651 11.136zM159.95 46.394a8.554 8.554 0 0 0 7.902 5.291 8.441 8.441 0 0 0 3.243-.648 8.535 8.535 0 0 0 4.642-11.136L161.495 5.297c-1.792-4.361-6.767-6.451-11.136-4.651-4.361 1.801-6.434 6.784-4.651 11.136l14.242 34.612zM256.001 102.407a8.53 8.53 0 0 0 8.533-8.533V34.14a8.53 8.53 0 0 0-8.533-8.533 8.536 8.536 0 0 0-8.533 8.533v59.733c0 4.711 3.823 8.534 8.533 8.534zM173.015 77.95l13.065 31.539a8.538 8.538 0 0 0 11.153 4.616 8.544 8.544 0 0 0 4.617-11.153l-13.073-31.539c-1.809-4.352-6.793-6.417-11.145-4.617a8.527 8.527 0 0 0-4.617 11.154zM418.135 247.473a8.536 8.536 0 0 0-8.533 8.533 8.536 8.536 0 0 0 8.533 8.533h68.267a8.53 8.53 0 0 0 8.533-8.533 8.53 8.53 0 0 0-8.533-8.533h-68.267zM138.335 148.64c1.673 1.673 3.849 2.5 6.033 2.5s4.369-.828 6.033-2.5c3.336-3.328 3.336-8.73 0-12.066l-48.265-48.265a8.525 8.525 0 0 0-12.066 0c-3.337 3.328-3.337 8.73 0 12.066l48.265 48.265zM468.865 176.373a8.548 8.548 0 0 0 3.243-.64l34.611-14.234c4.352-1.792 6.434-6.784 4.642-11.136-1.784-4.361-6.776-6.451-11.136-4.651l-34.611 14.234c-4.352 1.792-6.434 6.784-4.642 11.136a8.529 8.529 0 0 0 7.893 5.291zM397.911 197.229a8.532 8.532 0 0 0 7.885 5.274 8.49 8.49 0 0 0 3.268-.657l31.531-13.065a8.531 8.531 0 0 0 4.617-11.153c-1.809-4.352-6.81-6.417-11.145-4.617l-31.539 13.073c-4.353 1.801-6.418 6.793-4.617 11.145zM367.634 148.64a8.488 8.488 0 0 0 6.033 2.5 8.475 8.475 0 0 0 6.033-2.5l42.24-42.231c3.328-3.337 3.328-8.738 0-12.066-3.337-3.337-8.738-3.337-12.066 0l-42.24 42.231c-3.327 3.337-3.327 8.738 0 12.066z"/><path d="M311.733 170.084c-3.959-2.569-9.242-1.451-11.81 2.5s-1.442 9.242 2.509 11.802a85.827 85.827 0 0 1 29.67 32.947 8.533 8.533 0 0 0 15.207-7.748 102.914 102.914 0 0 0-35.576-39.501zM352.036 465.577c-1.818-4.344-6.818-6.383-11.162-4.582-4.352 1.818-6.4 6.818-4.591 11.17l14.242 34.065a8.566 8.566 0 0 0 7.885 5.248c1.092 0 2.21-.213 3.285-.666 4.343-1.818 6.4-6.818 4.582-11.162l-14.241-34.073zM379.701 365.865c-3.328-3.328-8.73-3.328-12.066 0a8.55 8.55 0 0 0 0 12.075l48.273 48.264a8.473 8.473 0 0 0 6.033 2.5 8.504 8.504 0 0 0 6.033-2.5c3.328-3.328 3.328-8.73 0-12.066l-48.273-48.273zM338.997 434.072l-13.065-31.556c-1.809-4.343-6.792-6.426-11.153-4.616a8.544 8.544 0 0 0-4.617 11.153l13.065 31.548a8.549 8.549 0 0 0 7.893 5.274 8.515 8.515 0 0 0 3.26-.657c4.352-1.802 6.417-6.794 4.617-11.146zM197.241 397.907c-4.361-1.818-9.353.265-11.153 4.617l-13.073 31.548a8.517 8.517 0 0 0 4.617 11.145 8.485 8.485 0 0 0 3.26.657 8.515 8.515 0 0 0 7.885-5.274l13.082-31.548c1.799-4.352-.266-9.344-4.618-11.145zM256.001 409.607a8.536 8.536 0 0 0-8.533 8.533v68.267a8.536 8.536 0 0 0 8.533 8.533 8.53 8.53 0 0 0 8.533-8.533V418.14a8.53 8.53 0 0 0-8.533-8.533zM440.594 323.232l-31.539-13.065a8.533 8.533 0 1 0-6.536 15.762l31.548 13.073a8.452 8.452 0 0 0 3.26.657 8.546 8.546 0 0 0 7.885-5.274c1.808-4.352-.265-9.344-4.618-11.153zM506.711 350.513l-34.603-14.217c-4.352-1.801-9.344.29-11.136 4.651-1.792 4.352.29 9.335 4.651 11.127l34.603 14.225a8.527 8.527 0 0 0 11.136-4.651 8.532 8.532 0 0 0-4.651-11.135zM171.069 460.969c-4.352-1.792-9.344.29-11.136 4.642l-14.225 34.62c-1.783 4.361.29 9.344 4.651 11.136a8.528 8.528 0 0 0 11.136-4.651l14.225-34.611a8.531 8.531 0 0 0-4.651-11.136zM5.292 161.5l34.62 14.225a8.532 8.532 0 0 0 11.136-4.651 8.531 8.531 0 0 0-4.651-11.136l-34.62-14.225c-4.343-1.801-9.344.29-11.136 4.651-1.783 4.36.291 9.344 4.651 11.136zM25.601 247.473a8.536 8.536 0 0 0-8.533 8.533 8.536 8.536 0 0 0 8.533 8.533h68.267a8.53 8.53 0 0 0 8.533-8.533 8.53 8.53 0 0 0-8.533-8.533H25.601zM71.408 188.781l31.548 13.065a8.485 8.485 0 0 0 3.26.657 8.527 8.527 0 0 0 7.885-5.274 8.517 8.517 0 0 0-4.617-11.145l-31.539-13.073a8.544 8.544 0 0 0-11.153 4.617c-1.801 4.36.264 9.352 4.616 11.153zM39.903 336.28 5.292 350.513c-4.361 1.792-6.434 6.784-4.651 11.136a8.534 8.534 0 0 0 7.902 5.291 8.581 8.581 0 0 0 3.243-.64l34.603-14.242a8.531 8.531 0 0 0 4.651-11.136c-1.793-4.352-6.768-6.443-11.137-4.642zM114.109 314.793c-1.801-4.36-6.801-6.426-11.145-4.625l-31.548 13.065c-4.352 1.801-6.426 6.792-4.625 11.145a8.549 8.549 0 0 0 7.893 5.274 8.643 8.643 0 0 0 3.26-.648l31.548-13.065c4.353-1.802 6.426-6.794 4.617-11.146zM150.401 365.865c-3.328-3.328-8.73-3.328-12.066 0L90.07 414.138c-3.337 3.337-3.337 8.738 0 12.066a8.473 8.473 0 0 0 6.033 2.5 8.475 8.475 0 0 0 6.033-2.5l48.265-48.264a8.534 8.534 0 0 0 0-12.075z"/></svg>